# xmcd CD database file
#
# Track frame offsets:
#	150
#	20407
#	37062
#	52722
#	77187
#	95242
#	112210
#	132800
#	156380
#	175055
#	194992
#	216675
#
# Disc length: 3180 seconds
#
# Revision: 0
# Processed by: cddbd v1.4PL0 Copyright (c) Steve Scherf et al.
# Submitted via: Feurio! 1.63 - http://www.feurio.com
#
DISCID=b70c6a0c
DTITLE=The Animals - The Animals
DYEAR=1900
DGENRE=Blues
TTITLE0=The house of the rising sun
TTITLE1=We gotta get out of this place
TTITLE2=San Franciscan nights
TTITLE3=To love somebody
TTITLE4=Don't let me be misunderstood
TTITLE5=When i was young
TTITLE6=Scandinavian dreams
TTITLE7=Colour of the sunset
TTITLE8=Frisco queen
TTITLE9=Lovefire
TTITLE10=Howling
TTITLE11=Night fighter
EXTD=New and old songs from one of the great names of the '60s UK R&B  boom
EXTT0=
EXTT1=
EXTT2=
EXTT3=
EXTT4=
EXTT5=
EXTT6=
EXTT7=
EXTT8=
EXTT9=
EXTT10=
EXTT11=
PLAYORDER=
